# xmcd CD database file
#
# Track frame offsets:
#	150
#	18107
#	32467
#	51250
#	70212
#	92030
#	106380
#	112715
#	133382
#	153565
#	169197
#	191222
#
# Disc length: 2807 seconds
#
# Revision: 0
# Processed by: cddbd v1.5.1PL2 Copyright (c) Steve Scherf et al.
# Submitted via: CDex 1.60beta1
#
DISCID=9d0af50c
DTITLE=the Indigo - flair
DYEAR=2005
DGENRE=JPop
TTITLE0=Joyride to the Moon
TTITLE1=waiting for you
TTITLE2=ファンタジスタ★ガール
TTITLE3=Journey
TTITLE4=I'm busy
TTITLE5=my sweet bird
TTITLE6=Life is very short
TTITLE7=あの雲をつかまえて
TTITLE8=君のそばにいてあげる
TTITLE9=愛の呼吸
TTITLE10=Just the way you are
TTITLE11=flair
EXTD=YEAR: 2005
EXTT0=
EXTT1=
EXTT2=
EXTT3=
EXTT4=
EXTT5=
EXTT6=
EXTT7=
EXTT8=
EXTT9=
EXTT10=
EXTT11=
PLAYORDER=
